<?xml version="1.0" encoding="UTF-8"?>
<svg width="48px" height="48px" viewBox="0 0 48 48" version="1.1" xmlns="http://www.w3.org/2000/svg" xmlns:xlink="http://www.w3.org/1999/xlink">
    <title>text3</title>
    <g id="text3" stroke="none" stroke-width="1" fill="none" fill-rule="evenodd">
        <path d="M19,19 C19,18.448 19.448,18 20,18 L23,18 L23,29 C23,29.552 22.552,30 22,30 L20,30 L20,30.3 L20,30.7 C20,30.865 20.135,31 20.3,31 L27.7,31 C27.865,31 28,30.865 28,30.7 L28,30.3 L28,30 L26,30 C25.448,30 25,29.552 25,29 L25,18 L28,18 C28.552,18 29,18.448 29,19 L29,20 L30,20 L30,17.3 C30,17.134 29.866,17 29.7,17 L18.3,17 C18.134,17 18,17.134 18,17.3 L18,20 L19,20 L19,19 Z" id="Fill-1" fill="#1592E6"></path>
    </g>
</svg>